<svg xmlns="http://www.w3.org/2000/svg" xmlns:xlink="http://www.w3.org/1999/xlink" width="500" zoomAndPan="magnify" viewBox="0 0 375 374.999991" height="500" preserveAspectRatio="xMidYMid meet" version="1.0"><defs><clipPath id="517e929ad7"><path d="M 2.757812 291.414062 L 371.226562 291.414062 L 371.226562 337.484375 L 2.757812 337.484375 Z M 2.757812 291.414062 " clip-rule="nonzero"/></clipPath><clipPath id="e82c326125"><path d="M 10 22.539062 L 364 22.539062 L 364 146 L 10 146 Z M 10 22.539062 " clip-rule="nonzero"/></clipPath></defs><path fill="#009cf4" d="M 342.878906 114.90625 C 348.761719 115.269531 354.0625 118.222656 357.972656 122.804688 C 362.152344 127.714844 364.742188 134.488281 364.742188 141.972656 C 364.742188 149.457031 362.152344 156.234375 357.972656 161.140625 C 353.792969 166.042969 348.015625 169.078125 341.636719 169.078125 C 335.71875 169.078125 330.320312 166.46875 326.234375 162.175781 C 322.144531 166.46875 316.746094 169.078125 310.828125 169.078125 C 304.910156 169.078125 299.511719 166.46875 295.421875 162.175781 C 291.339844 166.46875 285.9375 169.078125 280.019531 169.078125 C 274.105469 169.078125 268.703125 166.46875 264.617188 162.175781 C 260.527344 166.46875 255.128906 169.078125 249.214844 169.078125 C 243.292969 169.078125 237.894531 166.46875 233.8125 162.175781 C 229.71875 166.46875 224.324219 169.078125 218.402344 169.078125 C 212.488281 169.078125 207.089844 166.46875 203 162.175781 C 198.914062 166.46875 193.511719 169.078125 187.597656 169.078125 C 181.679688 169.078125 176.28125 166.46875 172.195312 162.175781 C 168.105469 166.46875 162.707031 169.078125 156.789062 169.078125 C 150.875 169.078125 145.472656 166.46875 141.386719 162.175781 C 137.296875 166.46875 131.898438 169.078125 125.980469 169.078125 C 120.0625 169.078125 114.667969 166.46875 110.578125 162.175781 C 106.492188 166.46875 101.089844 169.078125 95.175781 169.078125 C 89.257812 169.078125 83.859375 166.46875 79.769531 162.175781 C 75.679688 166.46875 70.28125 169.078125 64.367188 169.078125 C 58.449219 169.078125 53.050781 166.46875 48.964844 162.175781 C 44.875 166.46875 39.476562 169.078125 33.5625 169.078125 C 27.179688 169.078125 21.402344 166.042969 17.21875 161.140625 C 13.039062 156.234375 10.453125 149.457031 10.453125 141.972656 C 10.453125 134.488281 13.039062 127.714844 17.21875 122.804688 C 20.847656 118.550781 25.675781 115.703125 31.0625 115.023438 L 342.878906 114.90625 " fill-opacity="1" fill-rule="nonzero"/><path fill="#009cf4" d="M 321.328125 166.121094 L 321.328125 306.777344 L 52.65625 306.777344 L 52.65625 165.339844 C 56.089844 167.714844 60.089844 169.078125 64.367188 169.078125 C 65.605469 169.078125 66.824219 168.964844 68.007812 168.742188 L 68.007812 291.425781 L 305.976562 291.425781 L 305.976562 168.480469 C 307.542969 168.875 309.164062 169.078125 310.828125 169.078125 C 314.609375 169.078125 318.179688 168.011719 321.328125 166.121094 " fill-opacity="1" fill-rule="nonzero"/><path fill="#009cf4" d="M 183.15625 253.042969 L 282.949219 253.042969 L 282.949219 191.632812 L 183.15625 191.632812 L 183.15625 253.042969 " fill-opacity="1" fill-rule="evenodd"/><path fill="#009cf4" d="M 24.832031 299.101562 L 349.160156 299.101562 C 357.074219 299.101562 363.550781 305.578125 363.550781 313.496094 L 363.550781 329.808594 L 10.433594 329.808594 L 10.433594 313.496094 C 10.433594 305.578125 16.914062 299.101562 24.832031 299.101562 " fill-opacity="1" fill-rule="evenodd"/><g clip-path="url(#517e929ad7)"><path fill="#009cf4" d="M 24.832031 291.425781 L 349.160156 291.425781 C 355.234375 291.425781 360.753906 293.90625 364.75 297.902344 C 368.746094 301.898438 371.226562 307.417969 371.226562 313.496094 L 371.226562 337.484375 L 2.757812 337.484375 L 2.757812 313.496094 C 2.757812 307.417969 5.238281 301.898438 9.234375 297.902344 C 13.230469 293.90625 18.75 291.425781 24.832031 291.425781 " fill-opacity="1" fill-rule="nonzero"/></g><path fill="#009cf4" d="M 91.039062 191.632812 L 152.449219 191.632812 L 152.449219 299.101562 L 91.039062 299.101562 Z M 139.929688 235.785156 C 135.691406 235.785156 132.253906 239.222656 132.253906 243.460938 C 132.253906 247.699219 135.691406 251.136719 139.929688 251.136719 C 144.167969 251.136719 147.605469 247.699219 147.605469 243.460938 C 147.605469 239.222656 144.167969 235.785156 139.929688 235.785156 " fill-opacity="1" fill-rule="evenodd"/><g clip-path="url(#e82c326125)"><path fill="#009cf4" d="M 65.152344 22.542969 L 314 22.542969 L 315.941406 27.375 L 359.144531 134.84375 L 363.375 145.371094 L 10.609375 145.371094 L 14.84375 134.84375 L 58.046875 27.375 L 59.984375 22.542969 Z M 303.667969 37.894531 L 70.316406 37.894531 L 33.289062 130.011719 L 340.699219 130.011719 L 303.667969 37.894531 " fill-opacity="1" fill-rule="nonzero"/></g></svg>